<svg width="130" height="56" viewBox="0 0 278.81399999999996 89.9" fill="none" xmlns="http://www.w3.org/2000/svg">
<path fill="white" d="M40.98 20.58L30.94 30.01Q34.60 32.36 36.21 34.78L36.21 34.78Q38.07 37.57 38.07 41.54L38.07 41.54Q38.07 43.71 36.52 46.56L36.52 46.56Q34.10 51.03 28.95 53.51L28.95 53.51Q24.24 55.80 18.85 55.80L18.85 55.80Q11.78 55.80 6.51 52.02L6.51 52.02L-0.31 57.47Q-6.14 62.12-6.70 62.12L-6.70 62.12Q-7.69 62.12-8.06 61.63L-8.06 61.63Q-8.06 60.95-1.80 56.36L-1.80 56.36Q0.62 54.62 5.52 51.09L5.52 51.09Q2.79 47.24 2.79 43.77L2.79 43.77Q2.79 39.06 6.32 35.28Q9.86 31.50 14.51 31.50L14.51 31.50Q20.52 31.50 23.99 34.84L23.99 34.84L27.78 31.43Q26.10 30.69 22.75 29.20L22.75 29.20Q19.10 27.53 19.10 25.85L19.10 25.85Q19.10 23.93 24.55 21.58L24.55 21.58L39.99 14.94Q44.02 13.21 45.88 13.21L45.88 13.21Q46.50 13.21 46.50 14.45L46.50 14.45Q46.50 15.38 40.98 20.58L40.98 20.58ZM21.20 25.73L21.20 25.73Q21.20 27.28 29.51 29.70L29.51 29.70Q33.85 26.60 45.20 15.19L45.20 15.19L45.20 14.63L44.70 14.45Q41.04 15.31 39.56 16.06L39.56 16.06L26.35 22.51Q21.20 25.05 21.20 25.73ZM4.59 43.59L4.59 43.59Q4.59 47.18 6.63 50.16L6.63 50.16Q9.18 48.24 10.60 46.87L10.60 46.87Q10.48 45.32 10.48 44.83L10.48 44.83Q10.48 42.04 13.08 39.68L13.08 39.68Q13.27 39.68 13.27 39.80L13.27 39.80Q13.27 40.11 13.02 40.42L13.02 40.42Q12.52 40.73 12.12 42.00Q11.72 43.28 11.72 44.08L11.72 44.08Q11.72 44.76 11.97 45.57L11.97 45.57Q16.62 41.42 23.06 35.53L23.06 35.53Q19.53 32.30 16.06 32.30L16.06 32.30Q11.41 32.30 8.00 35.62Q4.59 38.94 4.59 43.59ZM24.68 35.77L24.68 35.77Q25.79 38.56 25.79 40.80L25.79 40.80Q25.79 44.39 22.91 47.09Q20.03 49.79 16.43 49.79L16.43 49.79Q13.64 49.79 11.35 47.99L11.35 47.99L7.69 51.15Q12.52 54.56 18.54 54.56L18.54 54.56Q24.74 54.56 29.39 50.65L29.39 50.65Q34.35 46.56 34.35 40.49L34.35 40.49Q34.35 35.40 28.89 31.74L28.89 31.74Q27.22 33.11 24.68 35.77ZM23.68 36.64L12.65 46.87Q13.52 47.99 15.31 47.99L15.31 47.99Q18.04 47.99 21.30 45.07Q24.55 42.16 24.55 39.49L24.55 39.49Q24.55 38.32 23.68 36.64L23.68 36.64ZM53.69 53.63L53.82 53.82L63.05 50.34Q68.45 48.36 72.54 48.36L72.54 48.36Q73.66 48.36 74.09 48.79Q74.52 49.23 75.02 50.41L75.02 50.41Q74.83 51.21 73.41 53.88L73.41 53.88L73.59 54.13L83.33 52.58L83.33 53.69Q74.77 55.55 71.67 55.55L71.67 55.55L70.25 55.24L70.00 54.68Q70.74 53.20 71.67 50.10L71.67 50.10L71.05 49.85Q67.46 50.47 60.61 53.01Q53.75 55.55 50.16 56.17L50.16 56.17L49.60 55.86Q49.91 54.99 53.26 48.73L53.26 48.73Q47.24 51.34 39.37 53.69L39.37 53.69L39.37 52.58Q52.58 48.67 54.93 46.25L54.93 46.25Q58.65 40.55 66.15 29.20L66.15 29.20Q76.32 14.32 81.78 14.20L81.78 14.20Q83.82 15.50 83.82 17.79L83.82 17.79Q83.82 22.88 77.25 29.20L77.25 29.20Q72.85 33.23 63.98 41.23L63.98 41.23Q55.92 48.55 53.69 53.63L53.69 53.63ZM82.27 16.55L82.27 16.55Q82.27 15.31 81.16 15.31L81.16 15.31Q77.81 15.31 69.07 28.77L69.07 28.77Q66.15 33.42 60.33 42.78L60.33 42.78Q66.77 38.25 73.59 30.94L73.59 30.94Q82.27 21.64 82.27 16.55ZM97.22 48.98L97.22 48.98Q97.22 49.17 95.42 51.24Q93.62 53.32 93.62 53.94L93.62 53.94Q94.86 54.19 95.36 54.13L95.36 54.13L105.15 52.58L105.21 53.69L99.63 54.81Q96.16 55.49 93.99 55.49L93.99 55.49Q92.01 55.49 92.01 54.19L92.01 54.19Q92.01 53.82 92.57 52.51L92.57 52.51Q93.31 50.90 93.37 50.72L93.37 50.72Q89.84 51.83 83.02 53.69L83.02 53.69L83.02 52.51Q83.76 52.39 89.90 50.22L89.90 50.22Q95.05 48.42 96.60 48.42L96.60 48.42Q97.22 48.42 97.22 48.98ZM101.62 33.54L101.62 33.54Q101.62 32.12 102.05 30.69L102.05 30.69Q102.67 28.77 103.73 28.77L103.73 28.77Q104.90 28.77 104.90 29.82L104.90 29.82Q104.90 30.81 103.76 32.18Q102.61 33.54 101.62 33.54ZM105.15 52.64L119.10 48.79L119.47 48.98Q119.35 49.29 118.23 51.15L118.23 51.15Q117.37 52.58 117.37 53.32L117.37 53.32Q117.37 53.51 117.83 53.78Q118.30 54.06 118.48 54.06L118.48 54.06Q121.27 54.06 123.26 52.70L123.26 52.70Q123.44 52.58 126.23 49.91L126.23 49.91Q127.41 48.79 128.28 48.79L128.28 48.79L128.71 49.54Q128.22 50.65 127.41 52.76L127.41 52.76Q127.91 54.31 128.46 54.31L128.46 54.31Q130.82 54.31 139.93 52.58L139.93 52.58L139.93 53.69L133.92 55.06Q130.39 55.86 127.84 55.86L127.84 55.86Q127.16 55.86 126.39 54.78Q125.61 53.69 125.86 53.01L125.86 53.01Q120.84 55.86 117.24 55.86L117.24 55.86Q114.39 55.86 114.39 53.75L114.39 53.75Q114.39 53.51 115.69 50.90L115.69 50.90L114.39 51.52Q111.41 52.33 105.15 53.69L105.15 53.69L105.15 52.64ZM160.89 49.17L160.89 49.17Q160.77 49.79 160.46 50.10L160.46 50.10Q160.83 50.47 161.01 50.84L161.01 50.84Q160.89 51.09 160.21 52.20L160.21 52.20Q159.65 53.07 159.65 53.69L159.65 53.69Q160.58 54.13 161.32 54.00L161.32 54.00L168.83 52.89L168.83 54.00Q161.51 55.43 160.27 55.43L160.27 55.43Q157.98 55.43 157.05 53.75L157.05 53.75Q153.26 55.99 150.85 55.99L150.85 55.99Q147.44 55.99 147.44 53.38L147.44 53.38Q147.44 52.70 148.06 52.08L148.06 52.08L139.87 54.00L139.87 52.89Q145.39 51.21 148.43 50.34L148.43 50.34Q154.13 48.73 157.54 48.73L157.54 48.73Q159.40 48.73 160.89 49.17ZM150.47 53.94L150.47 53.94Q150.47 54.50 151.53 54.50L151.53 54.50Q153.20 54.50 155.93 53.10Q158.66 51.71 159.59 50.34L159.59 50.34Q158.84 50.10 157.79 50.10L157.79 50.10Q155.62 50.10 153.33 50.96L153.33 50.96Q150.47 52.08 150.47 53.94ZM168.95 52.70L180.92 49.10Q181.91 48.79 181.91 49.91L181.91 49.91Q181.91 50.10 181.47 51.03L181.47 51.03Q180.98 52.14 180.92 52.33L180.92 52.33L181.10 52.70Q184.14 52.58 190.28 50.72L190.28 50.72Q196.23 48.98 199.52 48.98L199.52 48.98Q200.38 48.98 200.38 49.66L200.38 49.66Q200.38 50.16 199.64 52.20L199.64 52.20Q199.76 52.27 200.29 52.98Q200.82 53.69 201.07 53.69L201.07 53.69Q202.80 53.69 207.82 52.70L207.82 52.70L207.82 53.82Q201.44 55.24 199.14 55.24L199.14 55.24Q196.73 55.24 196.73 51.09L196.73 51.09L177.38 54.99L176.76 54.87L176.64 54.31Q176.64 54.00 177.32 51.71L177.32 51.71L176.45 51.71Q173.97 52.58 168.95 53.82L168.95 53.82L168.95 52.70ZM226.61 53.94L226.92 53.94Q230.64 53.94 235.23 52.76L235.23 52.76L235.23 53.88Q234.24 54.44 229.96 54.87L229.96 54.87Q226.49 55.24 224.19 55.24L224.19 55.24Q221.77 56.92 219.48 56.92L219.48 56.92Q218.05 56.92 216.75 56.42L216.75 56.42Q215.02 55.74 215.02 54.56L215.02 54.56Q215.02 53.26 215.76 52.76L215.76 52.76Q220.41 53.88 223.88 53.94L223.88 53.94Q225.00 52.33 225.00 51.83L225.00 51.83Q225.00 49.97 222.21 49.97L222.21 49.97Q220.29 49.97 215.14 51.58L215.14 51.58L207.82 53.88L207.82 52.76Q218.86 48.73 224.01 48.73L224.01 48.73Q228.16 48.73 228.16 52.02L228.16 52.02Q228.16 52.45 227.60 53.10Q227.04 53.75 226.61 53.94L226.61 53.94ZM222.46 54.87L222.46 54.87Q222.39 54.81 220.19 54.50Q217.99 54.19 217.68 54.19L217.68 54.19Q217.31 54.19 217.31 54.68L217.31 54.68Q217.31 55.99 219.36 55.99L219.36 55.99Q221.28 55.99 222.46 54.87ZM249.43 53.63L249.55 53.82L258.79 50.34Q264.18 48.36 268.27 48.36L268.27 48.36Q269.39 48.36 269.82 48.79Q270.26 49.23 270.75 50.41L270.75 50.41Q270.57 51.21 269.14 53.88L269.14 53.88L269.33 54.13L279.06 52.58L279.06 53.69Q270.51 55.55 267.41 55.55L267.41 55.55L265.98 55.24L265.73 54.68Q266.48 53.20 267.41 50.10L267.41 50.10L266.79 49.85Q263.19 50.47 256.34 53.01Q249.49 55.55 245.89 56.17L245.89 56.17L245.33 55.86Q245.64 54.99 248.99 48.73L248.99 48.73Q242.98 51.34 235.10 53.69L235.10 53.69L235.10 52.58Q248.31 48.67 250.67 46.25L250.67 46.25Q254.39 40.55 261.89 29.20L261.89 29.20Q272.06 14.32 277.51 14.20L277.51 14.20Q279.56 15.50 279.56 17.79L279.56 17.79Q279.56 22.88 272.99 29.20L272.99 29.20Q268.58 33.23 259.72 41.23L259.72 41.23Q251.66 48.55 249.43 53.63L249.43 53.63ZM278.01 16.55L278.01 16.55Q278.01 15.31 276.89 15.31L276.89 15.31Q273.54 15.31 264.80 28.77L264.80 28.77Q261.89 33.42 256.06 42.78L256.06 42.78Q262.51 38.25 269.33 30.94L269.33 30.94Q278.01 21.64 278.01 16.55Z"/>
</svg>